<svg viewBox="79.84 144.07 244.62 244.62" version="1.1" xmlns="http://www.w3.org/2000/svg" style="fill-rule:evenodd;clip-rule:evenodd;stroke-linejoin:round;stroke-miterlimit:2;" width="100%" height="100%">
    <g transform="matrix(1,0,0,1,-10131.1,-436.74)">
        <g transform="matrix(0.848625,0,0,0.759804,4558.41,16.2309)">
            <g transform="matrix(4.9099,0,0,5.48387,6893.31,1039.68)">
                <path d="M0,-49.473C-0.083,-49.563 -0.194,-49.613 -0.32,-49.613L-35.685,-49.613C-35.808,-49.613 -35.92,-49.563 -36.003,-49.473C-36.081,-49.374 -36.111,-49.252 -36.092,-49.138L-30.15,-13.203C-30.117,-13.004 -29.943,-12.856 -29.742,-12.856L-22.45,-12.856L-21.951,-7.004L-25.02,-7L-17.88,0.14L-10.722,-7.016L-13.79,-7.013L-13.292,-12.856L-5.871,-12.856C-5.667,-12.856 -5.496,-13.004 -5.465,-13.209L0.094,-49.138C0.113,-49.262 0.076,-49.38 0,-49.473M-13.668,-20.704C-13.668,-20.704 -15.275,-19.053 -17.888,-19.232C-20.508,-19.053 -22.113,-20.704 -22.113,-20.704C-24.762,-23.351 -23.817,-26.644 -22.895,-28.346C-22.325,-29.412 -18.255,-35.525 -17.905,-36.045L-17.905,-36.086C-17.905,-36.086 -17.898,-36.078 -17.888,-36.067L-17.874,-36.086L-17.874,-36.045C-17.534,-35.525 -13.456,-29.412 -12.887,-28.346C-11.963,-26.644 -11.021,-23.351 -13.668,-20.704M-2.45,-41.912C-3.408,-42.334 -4.623,-42.182 -5.79,-41.71C-10.178,-39.931 -13.164,-39.291 -17.78,-40.737C-20.686,-41.646 -23.406,-43.552 -26.62,-42.391C-28.753,-41.624 -30.741,-40.892 -33.153,-40.911L-34.546,-48.053L-1.448,-48.053L-2.45,-41.912Z" style="fill:#ffffff;fill-rule:nonzero;"/>
            </g>
        </g>
    </g>
</svg>
