<svg viewBox="79.91 133.75 244.5 244.5" version="1.1" xmlns="http://www.w3.org/2000/svg" style="fill-rule:evenodd;clip-rule:evenodd;stroke-linejoin:round;stroke-miterlimit:2;" width="100%" height="100%">
    <g transform="matrix(1,0,0,1,-7865.62,-889.832)">
        <g transform="matrix(0.848625,0,0,0.759804,4558.41,16.2309)">
            <g transform="matrix(4.9099,0,0,5.48387,4135.34,1565.73)">
                <path d="M0,-28.576C7.89,-28.576 14.286,-22.18 14.286,-14.289C14.286,-6.395 7.89,0 0,0C-7.89,0 -14.286,-6.395 -14.286,-14.289C-14.286,-22.18 -7.89,-28.576 0,-28.576ZM-1.058,-22.932L-1.058,-18.027C-1.058,-17.553 -0.58,-17.035 0.006,-17.035C0.591,-17.035 1.064,-17.553 1.064,-18.027L1.064,-22.932C1.064,-23.407 0.591,-23.931 0.006,-23.931C-0.58,-23.931 -1.058,-23.407 -1.058,-22.932ZM0.002,-6.968C4.107,-6.968 7.434,-10.294 7.434,-14.399C7.434,-17.739 5.231,-20.563 2.198,-21.5L2.198,-18.736C3.781,-17.933 4.867,-16.295 4.867,-14.399C4.867,-11.712 2.69,-9.534 0.002,-9.534C-2.685,-9.534 -4.862,-11.712 -4.862,-14.399C-4.862,-16.29 -3.781,-17.925 -2.206,-18.729L-2.206,-21.496C-5.232,-20.556 -7.428,-17.734 -7.428,-14.399C-7.428,-10.294 -4.101,-6.968 0.002,-6.968ZM-16.4,-14.414C-16.4,-13.764 -16.974,-13.237 -17.498,-13.237L-23.754,-13.237C-24.282,-13.237 -24.861,-13.764 -24.861,-14.414C-24.861,-15.062 -24.282,-15.586 -23.754,-15.586L-17.498,-15.586C-16.974,-15.586 -16.4,-15.062 -16.4,-14.414ZM24.868,-14.414C24.868,-13.764 24.294,-13.237 23.77,-13.237L17.514,-13.237C16.986,-13.237 16.407,-13.764 16.407,-14.414C16.407,-15.062 16.986,-15.586 17.514,-15.586L23.77,-15.586C24.294,-15.586 24.868,-15.062 24.868,-14.414ZM0.006,10.452C-0.643,10.452 -1.172,9.878 -1.172,9.354L-1.172,3.098C-1.172,2.571 -0.643,1.991 0.006,1.991C0.653,1.991 1.178,2.571 1.178,3.098L1.178,9.354C1.178,9.878 0.653,10.452 0.006,10.452ZM21.585,-2.063C21.262,-1.499 20.502,-1.326 20.048,-1.587L14.617,-4.694C14.16,-4.956 13.919,-5.702 14.242,-6.265C14.563,-6.828 15.327,-6.996 15.785,-6.734L21.215,-3.626C21.669,-3.366 21.906,-2.625 21.585,-2.063ZM-12.345,7.17C-12.909,6.848 -13.082,6.086 -12.822,5.632L-9.714,0.202C-9.453,-0.255 -8.706,-0.496 -8.143,-0.174C-7.581,0.147 -7.413,0.912 -7.675,1.369L-10.783,6.799C-11.043,7.254 -11.783,7.491 -12.345,7.17ZM12.4,7.142C11.837,7.465 11.094,7.231 10.833,6.777L7.715,1.354C7.45,0.896 7.619,0.131 8.182,-0.192C8.744,-0.515 9.487,-0.275 9.751,0.182L12.87,5.606C13.131,6.06 12.961,6.819 12.4,7.142ZM-21.55,-2.015C-21.874,-2.578 -21.639,-3.322 -21.185,-3.583L-15.762,-6.702C-15.305,-6.965 -14.539,-6.796 -14.216,-6.233C-13.892,-5.671 -14.133,-4.928 -14.591,-4.665L-20.014,-1.546C-20.469,-1.285 -21.228,-1.454 -21.55,-2.015ZM0.006,-30.815C-0.643,-30.815 -1.172,-31.389 -1.172,-31.912L-1.172,-38.169C-1.172,-38.697 -0.643,-39.276 0.006,-39.276C0.653,-39.276 1.178,-38.697 1.178,-38.169L1.178,-31.912C1.178,-31.389 0.653,-30.815 0.006,-30.815ZM-14.233,-22.562C-14.555,-21.998 -15.315,-21.826 -15.77,-22.086L-21.2,-25.193C-21.658,-25.456 -21.899,-26.201 -21.576,-26.765C-21.254,-27.327 -20.491,-27.495 -20.033,-27.232L-14.603,-24.125C-14.148,-23.865 -13.911,-23.124 -14.233,-22.562ZM8.154,-28.647C7.59,-28.969 7.417,-29.73 7.677,-30.185L10.785,-35.615C11.047,-36.072 11.793,-36.314 12.357,-35.991C12.918,-35.669 13.086,-34.906 12.824,-34.447L9.716,-29.017C9.455,-28.563 8.716,-28.326 8.154,-28.647ZM-8.172,-28.633C-8.736,-28.309 -9.478,-28.544 -9.74,-28.998L-12.858,-34.421C-13.122,-34.879 -12.954,-35.644 -12.39,-35.967C-11.828,-36.29 -11.086,-36.051 -10.822,-35.593L-7.703,-30.169C-7.441,-29.715 -7.611,-28.956 -8.172,-28.633ZM14.225,-22.587C13.901,-23.149 14.136,-23.894 14.59,-24.155L20.014,-27.273C20.472,-27.537 21.236,-27.367 21.56,-26.805C21.883,-26.243 21.642,-25.5 21.184,-25.237L15.761,-22.118C15.306,-21.857 14.548,-22.026 14.225,-22.587Z" style="fill:#ffffff;fill-rule:nonzero;"/>
            </g>
        </g>
    </g>
</svg>
