<svg viewBox="79.24 131.56 245.85 245.85" version="1.1" xmlns="http://www.w3.org/2000/svg" style="fill-rule:evenodd;clip-rule:evenodd;stroke-linejoin:round;stroke-miterlimit:2;" width="100%" height="100%">
    <g transform="matrix(1,0,0,1,-8771.8,-889.832)">
        <g transform="matrix(0.848625,0,0,0.759804,4558.41,16.2309)">
            <g transform="matrix(4.9099,0,0,5.48387,5322.79,1469.31)">
                <path d="M0,5.581L-11.588,-1.107L-11.588,-14.486C-11.588,-14.768 -11.739,-15.029 -11.983,-15.171L-23.964,-22.088C-24.209,-22.229 -24.509,-22.229 -24.754,-22.088L-36.736,-15.171C-36.981,-15.029 -37.131,-14.768 -37.131,-14.486L-37.131,-1.107L-48.718,5.581C-48.963,5.722 -49.113,5.983 -49.113,6.266L-49.113,20.103C-49.113,20.385 -48.963,20.646 -48.718,20.788L-36.736,27.704C-36.613,27.774 -36.478,27.81 -36.341,27.81C-36.204,27.81 -36.068,27.774 -35.946,27.704L-24.359,21.016L-12.774,27.704C-12.651,27.774 -12.515,27.81 -12.379,27.81C-12.242,27.81 -12.106,27.774 -11.983,27.704L0,20.788C0.245,20.647 0.395,20.385 0.395,20.103L0.395,6.266C0.395,5.983 0.245,5.722 0,5.581M-25.149,18.734L-34.76,13.185L-25.149,7.635L-25.149,18.734ZM-13.96,-0.65L-23.569,4.897L-23.569,-6.2L-13.96,-0.65ZM-25.149,4.897L-34.76,-0.65L-25.149,-6.2L-25.149,4.897ZM-22.778,6.266L-12.379,0.263L-1.976,6.266L-12.379,12.272L-22.778,6.266ZM-13.169,-2.019L-22.778,-7.569L-13.169,-13.117L-13.169,-2.019ZM-25.94,-7.569L-35.551,-2.019L-35.551,-13.117L-25.94,-7.569ZM-37.131,25.65L-47.532,19.647L-47.532,7.635L-37.131,13.641L-37.131,25.65ZM-35.551,25.65L-35.551,14.554L-25.94,20.103L-35.551,25.65ZM-1.186,19.647L-11.588,25.65L-11.588,13.641L-1.186,7.635L-1.186,19.647Z" style="fill:#ffffff;fill-rule:nonzero;"/>
            </g>
        </g>
    </g>
</svg>
